<svg width="1352" height="518" viewBox="0 0 1352 518" fill="none" xmlns="http://www.w3.org/2000/svg">
<path d="M715.806 310.028L715.784 309.977L715.759 309.926C715.305 309.002 714.633 308.186 713.701 307.617C712.773 307.051 711.744 306.825 710.723 306.825L708.769 306.825C706.996 306.825 705.332 307.491 704.223 309.042C703.224 310.439 702.919 312.226 702.919 314.011L702.919 342.127C702.919 347.818 701.754 351.622 699.848 353.971C698.023 356.22 695.2 357.52 690.901 357.52L654.884 357.52C650.695 357.52 647.946 356.232 646.161 353.99C644.291 351.639 643.146 347.827 643.146 342.127L643.146 314.011C643.146 312.497 642.78 311.061 641.982 309.788C641.562 308.979 640.976 308.232 640.164 307.682C639.289 307.088 638.3 306.825 637.295 306.825L635.341 306.825C633.568 306.825 631.904 307.491 630.794 309.042C629.796 310.439 629.491 312.226 629.491 314.011L629.491 342.127C629.491 351.576 631.62 359.407 636.141 365.365C640.733 371.415 647.07 374.448 654.884 374.448L691.18 374.448C698.994 374.448 705.331 371.415 709.923 365.365C714.444 359.407 716.574 351.576 716.574 342.127L716.574 314.011C716.574 312.605 716.343 311.257 715.806 310.028ZM714.473 281.915L714.674 281.762L714.839 281.572C716.076 280.157 716.574 278.385 716.574 276.519L716.574 273.537C716.574 271.722 716.234 269.901 715.143 268.492C713.958 266.961 712.234 266.351 710.444 266.351L653.489 266.351C649.517 266.351 646.856 264.978 645.07 262.416C643.169 259.689 642.029 255.289 642.029 248.829L642.029 233.493C642.029 227.498 643.201 223.461 645.135 220.965C646.974 218.59 649.788 217.248 654.047 217.248L710.444 217.248C712.153 217.248 713.857 216.728 715.069 215.305C716.217 213.958 716.574 212.204 716.574 210.488L716.574 207.506C716.574 205.582 716.246 203.691 715.205 202.225C714.052 200.601 712.317 199.894 710.444 199.894L654.047 199.894C645.705 199.894 639.123 203.051 634.693 209.475C630.213 215.701 628.095 223.783 628.095 233.493L628.095 248.829C628.095 251.544 628.389 254.649 628.956 258.126C629.255 260.595 629.869 263.34 630.778 266.351L604.63 266.351C602.839 266.351 601.116 266.961 599.931 268.492C598.84 269.901 598.5 271.722 598.5 273.537L598.5 276.519C598.5 278.235 598.857 279.989 600.004 281.335C601.217 282.759 602.92 283.279 604.63 283.279L710.444 283.279C711.926 283.279 713.296 282.813 714.473 281.915ZM680.558 466.517L680.558 405.542C680.558 403.694 680.182 401.843 679 400.426C677.746 398.923 675.968 398.356 674.149 398.356L654.884 398.356C647.07 398.356 640.733 401.389 636.141 407.439C631.594 413.431 629.491 421.714 629.491 431.955L629.491 450.273C629.491 460.249 631.602 468.381 636.141 474.362C640.733 480.413 647.07 483.445 654.884 483.445L691.18 483.445C698.994 483.445 705.331 480.413 709.923 474.362C714.462 468.381 716.574 460.249 716.574 450.273L716.574 407.246C716.574 405.686 716.187 404.175 715.48 402.735C715.056 401.874 714.45 401.073 713.592 400.491C712.717 399.897 711.728 399.634 710.723 399.634L708.769 399.634C706.905 399.634 705.236 400.408 704.165 402.042C703.215 403.492 702.919 405.349 702.919 407.246L702.919 450.273C702.919 456.268 701.746 460.304 699.813 462.8C697.973 465.175 695.16 466.517 690.901 466.517L680.558 466.517ZM643.146 431.955C643.146 425.801 644.301 421.641 646.212 419.068C648.02 416.634 650.757 415.284 654.884 415.284L666.903 415.284L666.903 466.517L654.884 466.517C650.736 466.517 647.996 465.188 646.196 462.819C644.298 460.32 643.146 456.276 643.146 450.273L643.146 431.955Z" fill="#FFDD00" stroke="#FFDD00" stroke-width="5"/>
<path d="M137.26 51.2301H107.85C86.0644 51.2301 69.1808 59.9442 57.1989 77.3725C45.217 93.7115 39.226 115.497 39.226 142.728V459.705C39.226 473.865 33.7797 480.945 22.887 480.945H13.0836C4.36951 480.945 0.0124512 473.865 0.0124512 459.705V20.1861C0.0124512 7.11488 4.36951 0.579285 13.0836 0.579285H22.887C27.2441 0.579285 30.5119 1.66854 32.6904 3.84704C34.8689 6.02557 38.1367 12.5612 42.4938 23.4539C56.6543 15.829 68.0915 10.3827 76.8057 7.11484C86.609 2.7578 97.5017 0.579285 109.484 0.579285H137.26C141.617 0.579285 145.429 2.7578 148.697 7.11484C151.965 10.3827 153.599 14.7397 153.599 20.1861V31.6233C153.599 44.6945 148.153 51.2301 137.26 51.2301Z" fill="white"/>
<path d="M539.837 270.172H296.386V345.332C296.386 401.974 320.35 430.294 368.278 430.294H533.301C546.373 430.294 552.908 436.83 552.908 449.901V461.339C552.908 467.874 550.73 472.776 546.373 476.044C542.016 479.311 537.659 480.945 533.301 480.945H368.278C331.243 480.945 302.377 468.963 281.681 445C260.985 421.036 250.637 388.358 250.637 346.966V134.559C250.637 93.1668 260.985 60.4889 281.681 36.525C302.377 12.5612 331.243 0.579285 368.278 0.579285H438.535C476.66 0.579285 506.07 12.5612 526.766 36.525C547.462 60.4889 557.81 93.1668 557.81 134.559V247.298C557.81 262.548 551.819 270.172 539.837 270.172ZM512.061 134.559C512.061 79.0064 487.552 51.2301 438.535 51.2301H368.278C320.35 51.2301 296.386 79.0064 296.386 134.559V219.522H512.061V134.559Z" fill="white"/>
<path d="M1224.4 517.754H1151.41C1112.03 517.754 1081.33 505.01 1059.31 479.523C1037.3 454.036 1026.3 419.282 1026.3 375.259V149.353C1026.3 105.33 1037.3 70.5751 1059.31 45.0882C1081.33 19.6013 1112.03 6.85791 1151.41 6.85791H1224.4C1262.63 6.85791 1293.33 19.6013 1316.5 45.0882C1339.67 70.5751 1351.26 105.33 1351.26 149.353V375.259C1351.26 419.282 1339.67 454.036 1316.5 479.523C1293.33 505.01 1262.63 517.754 1224.4 517.754ZM1300.86 149.353C1300.86 90.2694 1275.37 60.7278 1224.4 60.7278H1151.41C1100.44 60.7278 1074.95 90.2694 1074.95 149.353V373.521C1074.95 433.763 1100.44 463.884 1151.41 463.884H1224.4C1275.37 463.884 1300.86 433.763 1300.86 373.521V149.353Z" fill="white"/>
<path d="M989.502 27.0328V6.44275L945.443 6.44275M779.483 134.689H736.538M736.538 134.689H610.056V92.1366M736.538 134.689V291.293M779.483 486.486H736.538V443.184M801.838 486.486H862.432V443.184M862.432 134.689H988.914V47.6229H966.559M862.432 134.689H841.939M862.432 134.689V184.904M966.559 47.6229V27.0328M966.559 47.6229H945.443V70.6599M945.443 70.6599H966.559M945.443 70.6599H924.673M924.673 70.6599V28.7739H883.133M924.673 70.6599H883.133M883.133 70.6599V91.6029M883.133 70.6599H841.939V28.7739H694.467M883.133 91.6029H902.518M883.133 91.6029H820.808M779.483 91.6029H820.808M862.432 6.44275H610.056V49.5837M862.432 6.44275V49.5837H902.518M862.432 6.44275L945.443 6.44275M820.808 91.6029V49.5837H717.98M820.808 91.6029V158.686M634.104 28.7739H694.467M694.467 28.7739V70.6599M694.467 70.6599H634.104M694.467 70.6599H757.637M799.4 70.6599H757.637M610.056 49.5837H672.708M610.056 49.5837V92.1366M610.056 92.1366H672.708M634.104 112.754H694.467M736.538 112.754H694.467M694.467 112.754V91.6029H757.637M757.637 91.6029V70.6599M757.637 91.6029V112.754H799.4V158.686H757.637V184.063M779.483 158.686V184.063M799.4 208.554H820.808V158.686M799.4 208.554V186.319M799.4 208.554H757.637V270.748H820.808M841.939 270.748H820.808M820.808 158.686H841.347M841.939 112.754H924.673V91.6029H966.559V112.754H945.443M862.432 184.904H841.347V228.728H779.483V249.568H841.347M862.432 184.904V313.672M820.808 270.748V292.21M799.4 465.031H841.306M799.4 465.031V401M799.4 465.031H758.541M799.4 401V380.418H820.808V334.968H799.4V313.672H820.808V292.21M799.4 401H841.306M841.306 422.296H756.408V380.418M736.538 443.184H779.483M736.538 443.184V291.293M820.808 443.184H862.432M862.432 443.184V380.418M756.408 313.672V334.968M736.538 291.293H779.483M799.4 291.293H779.483M779.483 291.293V401M757.637 359.218H799.4M820.808 292.21H841.306M841.939 313.672H862.432M862.432 313.672V380.418M841.939 334.968V380.418H862.432M945.443 6.44275V27.0328" stroke="#FFDD00" stroke-width="6"/>
<circle cx="672.017" cy="92.3101" r="4.39166" fill="#FFDD00" stroke="#FFDD00"/>
<circle cx="672.017" cy="49.4211" r="4.39166" fill="#FFDD00" stroke="#FFDD00"/>
<circle cx="635.415" cy="28.5379" r="4.39166" fill="#FFDD00" stroke="#FFDD00"/>
<circle cx="635.415" cy="70.4166" r="4.39166" fill="#FFDD00" stroke="#FFDD00"/>
<circle cx="797.741" cy="70.4166" r="4.39166" fill="#FFDD00" stroke="#FFDD00"/>
<circle cx="720.144" cy="49.4211" r="4.39166" fill="#FFDD00" stroke="#FFDD00"/>
<circle cx="734.123" cy="113.006" r="4.39166" fill="#FFDD00" stroke="#FFDD00"/>
<circle cx="842.048" cy="113.006" r="4.39166" fill="#FFDD00" stroke="#FFDD00"/>
<circle cx="842.048" cy="134.528" r="4.39166" fill="#FFDD00" stroke="#FFDD00"/>
<circle cx="781.063" cy="134.528" r="4.39166" fill="#FFDD00" stroke="#FFDD00"/>
<circle cx="781.063" cy="91.5273" r="4.39166" fill="#FFDD00" stroke="#FFDD00"/>
<circle cx="901.994" cy="91.5273" r="4.39166" fill="#FFDD00" stroke="#FFDD00"/>
<circle cx="966.34" cy="70.4166" r="4.39166" fill="#FFDD00" stroke="#FFDD00"/>
<circle cx="947.813" cy="113.006" r="4.39166" fill="#FFDD00" stroke="#FFDD00"/>
<circle cx="945.498" cy="28.5379" r="4.39166" fill="#FFDD00" stroke="#FFDD00"/>
<circle cx="882.905" cy="28.5379" r="4.39166" fill="#FFDD00" stroke="#FFDD00"/>
<circle cx="842.048" cy="158.759" r="4.39166" fill="#FFDD00" stroke="#FFDD00"/>
<circle cx="842.048" cy="249.483" r="4.39166" fill="#FFDD00" stroke="#FFDD00"/>
<circle cx="842.048" cy="270.306" r="4.39166" fill="#FFDD00" stroke="#FFDD00"/>
<circle cx="842.048" cy="292.51" r="4.39166" fill="#FFDD00" stroke="#FFDD00"/>
<circle cx="842.048" cy="313.334" r="4.39166" fill="#FFDD00" stroke="#FFDD00"/>
<circle cx="842.048" cy="334.157" r="4.39166" fill="#FFDD00" stroke="#FFDD00"/>
<circle cx="842.048" cy="401.057" r="4.39166" fill="#FFDD00" stroke="#FFDD00"/>
<circle cx="842.048" cy="421.881" r="4.39166" fill="#FFDD00" stroke="#FFDD00"/>
<circle cx="842.048" cy="464.908" r="4.39166" fill="#FFDD00" stroke="#FFDD00"/>
<circle cx="756.483" cy="464.908" r="4.39166" fill="#FFDD00" stroke="#FFDD00"/>
<circle cx="756.483" cy="380.385" r="4.39166" fill="#FFDD00" stroke="#FFDD00"/>
<circle cx="779.524" cy="399.161" r="4.39166" fill="#FFDD00" stroke="#FFDD00"/>
<circle cx="779.524" cy="443.162" r="4.39166" fill="#FFDD00" stroke="#FFDD00"/>
<circle cx="820.846" cy="443.162" r="4.39166" fill="#FFDD00" stroke="#FFDD00"/>
<circle cx="756.483" cy="313.334" r="4.39166" fill="#FFDD00" stroke="#FFDD00"/>
<circle cx="756.483" cy="334.157" r="4.39166" fill="#FFDD00" stroke="#FFDD00"/>
<circle cx="756.483" cy="358.959" r="4.39166" fill="#FFDD00" stroke="#FFDD00"/>
<circle cx="799.779" cy="358.959" r="4.39166" fill="#FFDD00" stroke="#FFDD00"/>
<circle cx="799.779" cy="292.51" r="4.39166" fill="#FFDD00" stroke="#FFDD00"/>
<circle cx="799.779" cy="186.191" r="4.39166" fill="#FFDD00" stroke="#FFDD00"/>
<circle cx="779.524" cy="186.191" r="4.39166" fill="#FFDD00" stroke="#FFDD00"/>
<circle cx="757.68" cy="186.191" r="4.39166" fill="#FFDD00" stroke="#FFDD00"/>
<circle cx="901.994" cy="49.4211" r="4.39166" fill="#FFDD00" stroke="#FFDD00"/>
<circle cx="966.34" cy="28.5379" r="4.39166" fill="#FFDD00" stroke="#FFDD00"/>
<circle cx="635.415" cy="113.006" r="4.39166" fill="#FFDD00" stroke="#FFDD00"/>
</svg>
