<svg width="1352" height="518" viewBox="0 0 1352 518" fill="none" xmlns="http://www.w3.org/2000/svg">
<path d="M715.806 310.17L715.784 310.119L715.759 310.068C715.305 309.144 714.633 308.328 713.701 307.759C712.773 307.193 711.744 306.967 710.723 306.967L708.769 306.967C706.996 306.967 705.332 307.633 704.223 309.184C703.224 310.581 702.919 312.369 702.919 314.153L702.919 342.269C702.919 347.96 701.754 351.764 699.848 354.113C698.023 356.362 695.2 357.662 690.901 357.662L654.884 357.662C650.695 357.662 647.946 356.374 646.161 354.132C644.291 351.781 643.146 347.969 643.146 342.269L643.146 314.153C643.146 312.64 642.78 311.203 641.982 309.93C641.562 309.121 640.976 308.374 640.164 307.824C639.289 307.23 638.3 306.967 637.295 306.967L635.341 306.967C633.568 306.967 631.904 307.633 630.794 309.184C629.796 310.581 629.491 312.369 629.491 314.153L629.491 342.269C629.491 351.718 631.62 359.549 636.141 365.507C640.733 371.557 647.07 374.59 654.884 374.59L691.18 374.59C698.994 374.59 705.331 371.557 709.923 365.507C714.444 359.549 716.574 351.718 716.574 342.269L716.574 314.153C716.574 312.747 716.343 311.4 715.806 310.17ZM714.473 282.057L714.674 281.904L714.839 281.714C716.076 280.299 716.574 278.527 716.574 276.661L716.574 273.679C716.574 271.864 716.234 270.043 715.143 268.634C713.958 267.104 712.234 266.493 710.444 266.493L653.489 266.493C649.517 266.493 646.856 265.12 645.07 262.558C643.169 259.832 642.029 255.431 642.029 248.971L642.029 233.635C642.029 227.64 643.201 223.603 645.135 221.107C646.974 218.732 649.788 217.39 654.047 217.39L710.444 217.39C712.153 217.39 713.857 216.87 715.069 215.447C716.217 214.1 716.574 212.346 716.574 210.63L716.574 207.648C716.574 205.724 716.246 203.833 715.205 202.367C714.052 200.743 712.317 200.036 710.444 200.036L654.047 200.036C645.705 200.036 639.123 203.193 634.693 209.617C630.213 215.843 628.095 223.925 628.095 233.635L628.095 248.971C628.095 251.686 628.389 254.791 628.956 258.268C629.255 260.737 629.869 263.482 630.778 266.493L604.63 266.493C602.839 266.493 601.116 267.104 599.931 268.634C598.84 270.043 598.5 271.864 598.5 273.679L598.5 276.661C598.5 278.377 598.857 280.131 600.004 281.478C601.217 282.901 602.92 283.421 604.63 283.421L710.444 283.421C711.926 283.421 713.296 282.955 714.473 282.057ZM680.558 466.659L680.558 405.684C680.558 403.836 680.182 401.985 679 400.568C677.746 399.065 675.968 398.498 674.149 398.498L654.884 398.498C647.07 398.498 640.733 401.531 636.141 407.581C631.594 413.573 629.491 421.856 629.491 432.097L629.491 450.415C629.491 460.391 631.602 468.523 636.141 474.505C640.733 480.555 647.07 483.587 654.884 483.587L691.18 483.587C698.994 483.587 705.331 480.555 709.923 474.505C714.462 468.523 716.574 460.391 716.574 450.415L716.574 407.388C716.574 405.828 716.187 404.317 715.48 402.878C715.056 402.016 714.45 401.215 713.592 400.633C712.717 400.04 711.728 399.776 710.723 399.776L708.769 399.776C706.905 399.776 705.236 400.55 704.165 402.184C703.215 403.634 702.919 405.491 702.919 407.388L702.919 450.415C702.919 456.41 701.746 460.446 699.813 462.942C697.973 465.317 695.16 466.659 690.901 466.659L680.558 466.659ZM643.146 432.097C643.146 425.943 644.301 421.783 646.212 419.21C648.02 416.776 650.757 415.426 654.884 415.426L666.903 415.426L666.903 466.659L654.884 466.659C650.736 466.659 647.996 465.33 646.196 462.961C644.298 460.462 643.146 456.418 643.146 450.415L643.146 432.097Z" fill="#FF2C57" stroke="#FF2C57" stroke-width="5"/>
<path d="M137.26 51.3722H107.85C86.0644 51.3722 69.1808 60.0863 57.1989 77.5146C45.217 93.8535 39.226 115.639 39.226 142.87V459.847C39.226 474.007 33.7797 481.087 22.887 481.087H13.0836C4.36951 481.087 0.0124512 474.007 0.0124512 459.847V20.3281C0.0124512 7.25695 4.36951 0.721359 13.0836 0.721359H22.887C27.2441 0.721359 30.5119 1.81061 32.6904 3.98911C34.8689 6.16765 38.1367 12.7033 42.4938 23.5959C56.6543 15.9711 68.0915 10.5247 76.8057 7.25692C86.609 2.89988 97.5017 0.721359 109.484 0.721359H137.26C141.617 0.721359 145.429 2.89988 148.697 7.25692C151.965 10.5247 153.599 14.8818 153.599 20.3281V31.7654C153.599 44.8366 148.153 51.3722 137.26 51.3722Z" fill="white"/>
<path d="M539.837 270.315H296.386V345.474C296.386 402.116 320.35 430.437 368.278 430.437H533.301C546.373 430.437 552.908 436.972 552.908 450.043V461.481C552.908 468.016 550.73 472.918 546.373 476.186C542.016 479.454 537.659 481.087 533.301 481.087H368.278C331.243 481.087 302.377 469.106 281.681 445.142C260.985 421.178 250.637 388.5 250.637 347.108V134.701C250.637 93.3089 260.985 60.631 281.681 36.6671C302.377 12.7033 331.243 0.721359 368.278 0.721359H438.535C476.66 0.721359 506.07 12.7033 526.766 36.6671C547.462 60.631 557.81 93.3089 557.81 134.701V247.44C557.81 262.69 551.819 270.315 539.837 270.315ZM512.061 134.701C512.061 79.1484 487.552 51.3722 438.535 51.3722H368.278C320.35 51.3722 296.386 79.1484 296.386 134.701V219.664H512.061V134.701Z" fill="white"/>
<path d="M1224.4 517.896H1151.41C1112.03 517.896 1081.33 505.152 1059.31 479.665C1037.3 454.179 1026.3 419.424 1026.3 375.401V149.495C1026.3 105.472 1037.3 70.7171 1059.31 45.2303C1081.33 19.7434 1112.03 7 1151.41 7H1224.4C1262.63 7 1293.33 19.7434 1316.5 45.2303C1339.67 70.7171 1351.26 105.472 1351.26 149.495V375.401C1351.26 419.424 1339.67 454.179 1316.5 479.665C1293.33 505.152 1262.63 517.896 1224.4 517.896ZM1300.86 149.495C1300.86 90.4115 1275.37 60.8699 1224.4 60.8699H1151.41C1100.44 60.8699 1074.95 90.4115 1074.95 149.495V373.663C1074.95 433.905 1100.44 464.026 1151.41 464.026H1224.4C1275.37 464.026 1300.86 433.905 1300.86 373.663V149.495Z" fill="white"/>
<path d="M989.502 28.0328V7.44275L945.443 7.44275M779.483 135.689H736.538M736.538 135.689H610.056V93.1366M736.538 135.689V292.293M779.483 487.486H736.538V444.184M801.838 487.486H862.432V444.184M862.432 135.689H988.914V48.6229H966.559M862.432 135.689H841.939M862.432 135.689V185.904M966.559 48.6229V28.0328M966.559 48.6229H945.443V71.6599M945.443 71.6599H966.559M945.443 71.6599H924.673M924.673 71.6599V29.7739H883.133M924.673 71.6599H883.133M883.133 71.6599V92.6029M883.133 71.6599H841.939V29.7739H694.467M883.133 92.6029H902.518M883.133 92.6029H820.808M779.483 92.6029H820.808M862.432 7.44275H610.056V50.5837M862.432 7.44275V50.5837H902.518M862.432 7.44275L945.443 7.44275M820.808 92.6029V50.5837H717.98M820.808 92.6029V159.686M634.104 29.7739H694.467M694.467 29.7739V71.6599M694.467 71.6599H634.104M694.467 71.6599H757.637M799.4 71.6599H757.637M610.056 50.5837H672.708M610.056 50.5837V93.1366M610.056 93.1366H672.708M634.104 113.754H694.467M736.538 113.754H694.467M694.467 113.754V92.6029H757.637M757.637 92.6029V71.6599M757.637 92.6029V113.754H799.4V159.686H757.637V185.063M779.483 159.686V185.063M799.4 209.554H820.808V159.686M799.4 209.554V187.319M799.4 209.554H757.637V271.748H820.808M841.939 271.748H820.808M820.808 159.686H841.347M841.939 113.754H924.673V92.6029H966.559V113.754H945.443M862.432 185.904H841.347V229.728H779.483V250.568H841.347M862.432 185.904V314.672M820.808 271.748V293.21M799.4 466.031H841.306M799.4 466.031V402M799.4 466.031H758.541M799.4 402V381.418H820.808V335.968H799.4V314.672H820.808V293.21M799.4 402H841.306M841.306 423.296H756.408V381.418M736.538 444.184H779.483M736.538 444.184V292.293M820.808 444.184H862.432M862.432 444.184V381.418M756.408 314.672V335.968M736.538 292.293H779.483M799.4 292.293H779.483M779.483 292.293V402M757.637 360.218H799.4M820.808 293.21H841.306M841.939 314.672H862.432M862.432 314.672V381.418M841.939 335.968V381.418H862.432M945.443 7.44275V28.0328" stroke="#FF2C57" stroke-width="6"/>
<circle cx="672.017" cy="93.3101" r="4.39166" fill="#FF2C57" stroke="#FF2C57"/>
<circle cx="672.017" cy="50.4211" r="4.39166" fill="#FF2C57" stroke="#FF2C57"/>
<circle cx="635.415" cy="29.5379" r="4.39166" fill="#FF2C57" stroke="#FF2C57"/>
<circle cx="635.415" cy="71.4166" r="4.39166" fill="#FF2C57" stroke="#FF2C57"/>
<circle cx="797.741" cy="71.4166" r="4.39166" fill="#FF2C57" stroke="#FF2C57"/>
<circle cx="720.144" cy="50.4211" r="4.39166" fill="#FF2C57" stroke="#FF2C57"/>
<circle cx="734.123" cy="114.006" r="4.39166" fill="#FF2C57" stroke="#FF2C57"/>
<circle cx="842.048" cy="114.006" r="4.39166" fill="#FF2C57" stroke="#FF2C57"/>
<circle cx="842.048" cy="135.528" r="4.39166" fill="#FF2C57" stroke="#FF2C57"/>
<circle cx="781.063" cy="135.528" r="4.39166" fill="#FF2C57" stroke="#FF2C57"/>
<circle cx="781.063" cy="92.5273" r="4.39166" fill="#FF2C57" stroke="#FF2C57"/>
<circle cx="901.994" cy="92.5273" r="4.39166" fill="#FF2C57" stroke="#FF2C57"/>
<circle cx="966.34" cy="71.4166" r="4.39166" fill="#FF2C57" stroke="#FF2C57"/>
<circle cx="947.813" cy="114.006" r="4.39166" fill="#FF2C57" stroke="#FF2C57"/>
<circle cx="945.498" cy="29.5379" r="4.39166" fill="#FF2C57" stroke="#FF2C57"/>
<circle cx="882.905" cy="29.5379" r="4.39166" fill="#FF2C57" stroke="#FF2C57"/>
<circle cx="842.048" cy="159.759" r="4.39166" fill="#FF2C57" stroke="#FF2C57"/>
<circle cx="842.048" cy="250.483" r="4.39166" fill="#FF2C57" stroke="#FF2C57"/>
<circle cx="842.048" cy="271.306" r="4.39166" fill="#FF2C57" stroke="#FF2C57"/>
<circle cx="842.048" cy="293.51" r="4.39166" fill="#FF2C57" stroke="#FF2C57"/>
<circle cx="842.048" cy="314.334" r="4.39166" fill="#FF2C57" stroke="#FF2C57"/>
<circle cx="842.048" cy="335.157" r="4.39166" fill="#FF2C57" stroke="#FF2C57"/>
<circle cx="842.048" cy="402.057" r="4.39166" fill="#FF2C57" stroke="#FF2C57"/>
<circle cx="842.048" cy="422.881" r="4.39166" fill="#FF2C57" stroke="#FF2C57"/>
<circle cx="842.048" cy="465.908" r="4.39166" fill="#FF2C57" stroke="#FF2C57"/>
<circle cx="756.483" cy="465.908" r="4.39166" fill="#FF2C57" stroke="#FF2C57"/>
<circle cx="756.483" cy="381.385" r="4.39166" fill="#FF2C57" stroke="#FF2C57"/>
<circle cx="779.524" cy="400.161" r="4.39166" fill="#FF2C57" stroke="#FF2C57"/>
<circle cx="779.524" cy="444.162" r="4.39166" fill="#FF2C57" stroke="#FF2C57"/>
<circle cx="820.846" cy="444.162" r="4.39166" fill="#FF2C57" stroke="#FF2C57"/>
<circle cx="756.483" cy="314.334" r="4.39166" fill="#FF2C57" stroke="#FF2C57"/>
<circle cx="756.483" cy="335.157" r="4.39166" fill="#FF2C57" stroke="#FF2C57"/>
<circle cx="756.483" cy="359.959" r="4.39166" fill="#FF2C57" stroke="#FF2C57"/>
<circle cx="799.779" cy="359.959" r="4.39166" fill="#FF2C57" stroke="#FF2C57"/>
<circle cx="799.779" cy="293.51" r="4.39166" fill="#FF2C57" stroke="#FF2C57"/>
<circle cx="799.779" cy="187.191" r="4.39166" fill="#FF2C57" stroke="#FF2C57"/>
<circle cx="779.524" cy="187.191" r="4.39166" fill="#FF2C57" stroke="#FF2C57"/>
<circle cx="757.68" cy="187.191" r="4.39166" fill="#FF2C57" stroke="#FF2C57"/>
<circle cx="901.994" cy="50.4211" r="4.39166" fill="#FF2C57" stroke="#FF2C57"/>
<circle cx="966.34" cy="29.5379" r="4.39166" fill="#FF2C57" stroke="#FF2C57"/>
<circle cx="635.415" cy="114.006" r="4.39166" fill="#FF2C57" stroke="#FF2C57"/>
</svg>
