<svg width="1352" height="518" viewBox="0 0 1352 518" fill="none" xmlns="http://www.w3.org/2000/svg">
<path d="M715.806 309.749L715.784 309.698L715.759 309.648C715.305 308.723 714.633 307.907 713.701 307.338C712.773 306.772 711.744 306.546 710.723 306.546L708.769 306.546C706.996 306.546 705.332 307.213 704.223 308.764C703.224 310.16 702.919 311.948 702.919 313.732L702.919 341.849C702.919 347.539 701.754 351.344 699.848 353.693C698.023 355.942 695.2 357.241 690.901 357.241L654.884 357.241C650.695 357.241 647.946 355.953 646.161 353.711C644.291 351.36 643.146 347.548 643.146 341.849L643.146 313.732C643.146 312.219 642.78 310.783 641.982 309.509C641.562 308.701 640.976 307.954 640.164 307.403C639.289 306.81 638.3 306.546 637.295 306.546L635.341 306.546C633.568 306.546 631.904 307.213 630.794 308.764C629.796 310.16 629.491 311.948 629.491 313.732L629.491 341.849C629.491 351.298 631.62 359.128 636.141 365.086C640.733 371.137 647.07 374.169 654.884 374.169L691.18 374.169C698.994 374.169 705.331 371.137 709.923 365.086C714.444 359.128 716.574 351.298 716.574 341.849L716.574 313.732C716.574 312.326 716.343 310.979 715.806 309.749ZM714.473 281.636L714.674 281.483L714.839 281.294C716.076 279.879 716.574 278.106 716.574 276.241L716.574 273.258C716.574 271.443 716.234 269.622 715.143 268.213C713.958 266.683 712.234 266.072 710.444 266.072L653.489 266.072C649.517 266.072 646.856 264.699 645.07 262.137C643.169 259.411 642.029 255.011 642.029 248.55L642.029 233.214C642.029 227.219 643.201 223.183 645.135 220.687C646.974 218.312 649.788 216.97 654.047 216.97L710.444 216.97C712.153 216.97 713.857 216.449 715.069 215.026C716.217 213.679 716.574 211.926 716.574 210.21L716.574 207.228C716.574 205.304 716.246 203.413 715.205 201.946C714.052 200.323 712.317 199.616 710.444 199.616L654.047 199.616C645.705 199.616 639.123 202.773 634.693 209.196C630.213 215.422 628.095 223.504 628.095 233.214L628.095 248.55C628.095 251.265 628.389 254.37 628.956 257.847C629.255 260.316 629.869 263.062 630.778 266.072L604.63 266.072C602.839 266.072 601.116 266.683 599.931 268.213C598.84 269.622 598.5 271.443 598.5 273.258L598.5 276.241C598.5 277.957 598.857 279.71 600.004 281.057C601.217 282.48 602.92 283.001 604.63 283.001L710.444 283.001C711.926 283.001 713.296 282.534 714.473 281.636ZM680.558 466.239L680.558 405.264C680.558 403.416 680.182 401.564 679 400.148C677.746 398.645 675.968 398.078 674.149 398.078L654.884 398.078C647.07 398.078 640.733 401.11 636.141 407.161C631.594 413.153 629.491 421.435 629.491 431.676L629.491 449.994C629.491 459.971 631.602 468.102 636.141 474.084C640.733 480.134 647.07 483.167 654.884 483.167L691.18 483.167C698.994 483.167 705.331 480.134 709.923 474.084C714.462 468.102 716.574 459.971 716.574 449.994L716.574 406.968C716.574 405.408 716.187 403.896 715.48 402.457C715.056 401.596 714.45 400.794 713.592 400.213C712.717 399.619 711.728 399.356 710.723 399.356L708.769 399.356C706.905 399.356 705.236 400.13 704.165 401.763C703.215 403.213 702.919 405.07 702.919 406.968L702.919 449.994C702.919 455.989 701.746 460.026 699.813 462.522C697.973 464.897 695.16 466.239 690.901 466.239L680.558 466.239ZM643.146 431.676C643.146 425.523 644.301 421.362 646.212 418.789C648.02 416.355 650.757 415.006 654.884 415.006L666.903 415.006L666.903 466.239L654.884 466.239C650.736 466.239 647.996 464.909 646.196 462.54C644.298 460.042 643.146 455.997 643.146 449.994L643.146 431.676Z" fill="#BB29BB" stroke="#BB29BB" stroke-width="5"/>
<path d="M137.26 50.9516H107.85C86.0644 50.9516 69.1808 59.6657 57.1989 77.094C45.217 93.433 39.226 115.218 39.226 142.45V459.426C39.226 473.587 33.7797 480.667 22.887 480.667H13.0836C4.36951 480.667 0.0124512 473.587 0.0124512 459.426V19.9076C0.0124512 6.83637 4.36951 0.300781 13.0836 0.300781H22.887C27.2441 0.300781 30.5119 1.39003 32.6904 3.56854C34.8689 5.74707 38.1367 12.2827 42.4938 23.1754C56.6543 15.5505 68.0915 10.1042 76.8057 6.83634C86.609 2.4793 97.5017 0.300781 109.484 0.300781H137.26C141.617 0.300781 145.429 2.4793 148.697 6.83634C151.965 10.1042 153.599 14.4612 153.599 19.9076V31.3448C153.599 44.416 148.153 50.9516 137.26 50.9516Z" fill="white"/>
<path d="M539.837 269.894H296.386V345.053C296.386 401.695 320.35 430.016 368.278 430.016H533.301C546.373 430.016 552.908 436.552 552.908 449.623V461.06C552.908 467.596 550.73 472.497 546.373 475.765C542.016 479.033 537.659 480.667 533.301 480.667H368.278C331.243 480.667 302.377 468.685 281.681 444.721C260.985 420.757 250.637 388.079 250.637 346.687V134.28C250.637 92.8883 260.985 60.2104 281.681 36.2465C302.377 12.2827 331.243 0.300781 368.278 0.300781H438.535C476.66 0.300781 506.07 12.2827 526.766 36.2465C547.462 60.2104 557.81 92.8883 557.81 134.28V247.019C557.81 262.269 551.819 269.894 539.837 269.894ZM512.061 134.28C512.061 78.7279 487.552 50.9516 438.535 50.9516H368.278C320.35 50.9516 296.386 78.7279 296.386 134.28V219.243H512.061V134.28Z" fill="white"/>
<path d="M1224.4 517.475H1151.41C1112.03 517.475 1081.33 504.732 1059.31 479.245C1037.3 453.758 1026.3 419.003 1026.3 374.98V149.074C1026.3 105.051 1037.3 70.2965 1059.31 44.8096C1081.33 19.3228 1112.03 6.57935 1151.41 6.57935H1224.4C1262.63 6.57935 1293.33 19.3228 1316.5 44.8096C1339.67 70.2965 1351.26 105.051 1351.26 149.074V374.98C1351.26 419.003 1339.67 453.758 1316.5 479.245C1293.33 504.732 1262.63 517.475 1224.4 517.475ZM1300.86 149.074C1300.86 89.9909 1275.37 60.4493 1224.4 60.4493H1151.41C1100.44 60.4493 1074.95 89.9909 1074.95 149.074V373.243C1074.95 433.484 1100.44 463.605 1151.41 463.605H1224.4C1275.37 463.605 1300.86 433.484 1300.86 373.243V149.074Z" fill="white"/>
<path d="M989.502 27.033V6.44287L945.443 6.44287M779.483 134.69H736.538M736.538 134.69H610.056V92.1367M736.538 134.69V291.293M779.483 486.486H736.538V443.184M801.838 486.486H862.432V443.184M862.432 134.69H988.914V47.623H966.559M862.432 134.69H841.939M862.432 134.69V184.904M966.559 47.623V27.033M966.559 47.623H945.443V70.66M945.443 70.66H966.559M945.443 70.66H924.673M924.673 70.66V28.774H883.133M924.673 70.66H883.133M883.133 70.66V91.603M883.133 70.66H841.939V28.774H694.467M883.133 91.603H902.518M883.133 91.603H820.808M779.483 91.603H820.808M862.432 6.44287H610.056V49.5838M862.432 6.44287V49.5838H902.518M862.432 6.44287L945.443 6.44287M820.808 91.603V49.5838H717.98M820.808 91.603V158.686M634.104 28.774H694.467M694.467 28.774V70.66M694.467 70.66H634.104M694.467 70.66H757.637M799.4 70.66H757.637M610.056 49.5838H672.708M610.056 49.5838V92.1367M610.056 92.1367H672.708M634.104 112.754H694.467M736.538 112.754H694.467M694.467 112.754V91.603H757.637M757.637 91.603V70.66M757.637 91.603V112.754H799.4V158.686H757.637V184.063M779.483 158.686V184.063M799.4 208.554H820.808V158.686M799.4 208.554V186.319M799.4 208.554H757.637V270.748H820.808M841.939 270.748H820.808M820.808 158.686H841.347M841.939 112.754H924.673V91.603H966.559V112.754H945.443M862.432 184.904H841.347V228.728H779.483V249.568H841.347M862.432 184.904V313.672M820.808 270.748V292.21M799.4 465.031H841.306M799.4 465.031V401M799.4 465.031H758.541M799.4 401V380.418H820.808V334.968H799.4V313.672H820.808V292.21M799.4 401H841.306M841.306 422.296H756.408V380.418M736.538 443.184H779.483M736.538 443.184V291.293M820.808 443.184H862.432M862.432 443.184V380.418M756.408 313.672V334.968M736.538 291.293H779.483M799.4 291.293H779.483M779.483 291.293V401M757.637 359.218H799.4M820.808 292.21H841.306M841.939 313.672H862.432M862.432 313.672V380.418M841.939 334.968V380.418H862.432M945.443 6.44287V27.033" stroke="#BB29BB" stroke-width="6"/>
<circle cx="672.017" cy="92.3101" r="4.39166" fill="#BB29BB" stroke="#BB29BB"/>
<circle cx="672.017" cy="49.4212" r="4.39166" fill="#BB29BB" stroke="#BB29BB"/>
<circle cx="635.415" cy="28.5381" r="4.39166" fill="#BB29BB" stroke="#BB29BB"/>
<circle cx="635.415" cy="70.4166" r="4.39166" fill="#BB29BB" stroke="#BB29BB"/>
<circle cx="797.741" cy="70.4166" r="4.39166" fill="#BB29BB" stroke="#BB29BB"/>
<circle cx="720.144" cy="49.4212" r="4.39166" fill="#BB29BB" stroke="#BB29BB"/>
<circle cx="734.123" cy="113.006" r="4.39166" fill="#BB29BB" stroke="#BB29BB"/>
<circle cx="842.048" cy="113.006" r="4.39166" fill="#BB29BB" stroke="#BB29BB"/>
<circle cx="842.048" cy="134.528" r="4.39166" fill="#BB29BB" stroke="#BB29BB"/>
<circle cx="781.063" cy="134.528" r="4.39166" fill="#BB29BB" stroke="#BB29BB"/>
<circle cx="781.063" cy="91.5274" r="4.39166" fill="#BB29BB" stroke="#BB29BB"/>
<circle cx="901.994" cy="91.5274" r="4.39166" fill="#BB29BB" stroke="#BB29BB"/>
<circle cx="966.34" cy="70.4166" r="4.39166" fill="#BB29BB" stroke="#BB29BB"/>
<circle cx="947.813" cy="113.006" r="4.39166" fill="#BB29BB" stroke="#BB29BB"/>
<circle cx="945.498" cy="28.5381" r="4.39166" fill="#BB29BB" stroke="#BB29BB"/>
<circle cx="882.905" cy="28.5381" r="4.39166" fill="#BB29BB" stroke="#BB29BB"/>
<circle cx="842.048" cy="158.759" r="4.39166" fill="#BB29BB" stroke="#BB29BB"/>
<circle cx="842.048" cy="249.483" r="4.39166" fill="#BB29BB" stroke="#BB29BB"/>
<circle cx="842.048" cy="270.306" r="4.39166" fill="#BB29BB" stroke="#BB29BB"/>
<circle cx="842.048" cy="292.511" r="4.39166" fill="#BB29BB" stroke="#BB29BB"/>
<circle cx="842.048" cy="313.334" r="4.39166" fill="#BB29BB" stroke="#BB29BB"/>
<circle cx="842.048" cy="334.157" r="4.39166" fill="#BB29BB" stroke="#BB29BB"/>
<circle cx="842.048" cy="401.058" r="4.39166" fill="#BB29BB" stroke="#BB29BB"/>
<circle cx="842.048" cy="421.881" r="4.39166" fill="#BB29BB" stroke="#BB29BB"/>
<circle cx="842.048" cy="464.908" r="4.39166" fill="#BB29BB" stroke="#BB29BB"/>
<circle cx="756.483" cy="464.908" r="4.39166" fill="#BB29BB" stroke="#BB29BB"/>
<circle cx="756.483" cy="380.386" r="4.39166" fill="#BB29BB" stroke="#BB29BB"/>
<circle cx="779.524" cy="399.161" r="4.39166" fill="#BB29BB" stroke="#BB29BB"/>
<circle cx="779.524" cy="443.162" r="4.39166" fill="#BB29BB" stroke="#BB29BB"/>
<circle cx="820.846" cy="443.162" r="4.39166" fill="#BB29BB" stroke="#BB29BB"/>
<circle cx="756.483" cy="313.334" r="4.39166" fill="#BB29BB" stroke="#BB29BB"/>
<circle cx="756.483" cy="334.157" r="4.39166" fill="#BB29BB" stroke="#BB29BB"/>
<circle cx="756.483" cy="358.959" r="4.39166" fill="#BB29BB" stroke="#BB29BB"/>
<circle cx="799.779" cy="358.959" r="4.39166" fill="#BB29BB" stroke="#BB29BB"/>
<circle cx="799.779" cy="292.511" r="4.39166" fill="#BB29BB" stroke="#BB29BB"/>
<circle cx="799.779" cy="186.191" r="4.39166" fill="#BB29BB" stroke="#BB29BB"/>
<circle cx="779.524" cy="186.191" r="4.39166" fill="#BB29BB" stroke="#BB29BB"/>
<circle cx="757.68" cy="186.191" r="4.39166" fill="#BB29BB" stroke="#BB29BB"/>
<circle cx="901.994" cy="49.4212" r="4.39166" fill="#BB29BB" stroke="#BB29BB"/>
<circle cx="966.34" cy="28.5381" r="4.39166" fill="#BB29BB" stroke="#BB29BB"/>
<circle cx="635.415" cy="113.006" r="4.39166" fill="#BB29BB" stroke="#BB29BB"/>
</svg>
